<svg width="44" height="44" viewBox="0 0 44 44" fill="none" xmlns="http://www.w3.org/2000/svg">
<path d="M18.0001 32.4801L20.6667 33.8134V25.0267C20.6653 24.677 20.5264 24.3418 20.2801 24.0934L11.6401 15.3334H32.3867L23.7601 24.0934C23.5138 24.3418 23.3749 24.677 23.3734 25.0267L23.3334 35.3334L26.0001 36.6667V25.5734L34.7734 16.6667C35.1244 16.3107 35.3249 15.8333 35.3334 15.3334V14.0001C35.3334 13.6465 35.1929 13.3073 34.9429 13.0573C34.6928 12.8072 34.3537 12.6667 34.0001 12.6667H10.0001C9.64646 12.6667 9.30732 12.8072 9.05727 13.0573C8.80722 13.3073 8.66675 13.6465 8.66675 14.0001V15.3334C8.67528 15.8333 8.8758 16.3107 9.22675 16.6667L18.0001 25.5734V32.4801Z" fill="#4C67D4"/>
<path d="M22.0001 0.666748C17.7808 0.666748 13.6562 1.91793 10.1479 4.26206C6.63968 6.6062 3.90533 9.93801 2.29066 13.8362C0.675991 17.7343 0.25352 22.0237 1.07667 26.162C1.89982 30.3003 3.93163 34.1015 6.91515 37.085C9.89867 40.0685 13.6999 42.1003 17.8382 42.9235C21.9764 43.7467 26.2658 43.3242 30.164 41.7095C34.0622 40.0948 37.394 37.3605 39.7381 33.8522C42.0822 30.344 43.3334 26.2194 43.3334 22.0001C43.3334 16.3421 41.0858 10.9159 37.085 6.91514C33.0843 2.91436 27.658 0.666748 22.0001 0.666748ZM22.0001 40.6667C18.3082 40.6667 14.6992 39.572 11.6294 37.5208C8.55973 35.4697 6.16718 32.5544 4.75434 29.1435C3.3415 25.7326 2.97184 21.9794 3.6921 18.3584C4.41236 14.7374 6.19018 11.4113 8.80076 8.80075C11.4113 6.19017 14.7374 4.41235 18.3584 3.69209C21.9794 2.97183 25.7326 3.34149 29.1435 4.75433C32.5544 6.16717 35.4697 8.55972 37.5209 11.6294C39.572 14.6992 40.6668 18.3082 40.6668 22.0001C40.6668 26.9508 38.7001 31.6987 35.1994 35.1994C31.6987 38.7001 26.9508 40.6667 22.0001 40.6667Z" fill="#4C67D4"/>
</svg>
