<svg width="1446" height="348" viewBox="0 0 1446 348" fill="none" xmlns="http://www.w3.org/2000/svg">
<ellipse cx="720" cy="256" rx="720" ry="68" fill="#849CFF"/>
<ellipse rx="15.0036" ry="15.038" transform="matrix(-0.29634 -0.955083 0.955545 -0.294845 108.469 124.222)" fill="#849CFF"/>
<ellipse rx="15.0036" ry="15.038" transform="matrix(-0.29634 -0.955083 0.955545 -0.294845 23.8295 177.764)" fill="#849CFF"/>
<ellipse rx="5.00121" ry="5.01266" transform="matrix(-0.29634 -0.955083 0.955545 -0.294845 102.086 96.8815)" fill="#849CFF"/>
<ellipse rx="5.00121" ry="5.01266" transform="matrix(-0.29634 -0.955083 0.955545 -0.294845 10.2829 146.255)" fill="#849CFF"/>
<ellipse rx="5.00121" ry="5.01266" transform="matrix(-0.29634 -0.955083 0.955545 -0.294845 89.3529 157.336)" fill="#849CFF"/>
<ellipse rx="5.00121" ry="5.01266" transform="matrix(-0.29634 -0.955083 0.955545 -0.294845 168.546 118.245)" fill="#849CFF"/>
<ellipse rx="5.00121" ry="5.01266" transform="matrix(-0.29634 -0.955083 0.955545 -0.294845 143.136 134.46)" fill="#849CFF"/>
<ellipse rx="5.00121" ry="5.01266" transform="matrix(-0.29634 -0.955083 0.955545 -0.294845 11.3324 98.7152)" fill="#849CFF"/>
<ellipse rx="5.00121" ry="5.01266" transform="matrix(-0.29634 -0.955083 0.955545 -0.294845 11.3324 98.7152)" fill="#849CFF"/>
<path d="M105.775 147.064C109.743 145.839 113.955 148.055 115.183 152.012C116.411 155.969 114.189 160.169 110.221 161.393C106.253 162.618 102.041 160.403 100.814 156.445C99.5858 152.488 101.807 148.288 105.775 147.064Z" fill="#849CFF"/>
<path d="M79.6073 103.323C83.5753 102.098 87.7873 104.314 89.0151 108.271C90.2429 112.228 88.0215 116.428 84.0535 117.652C80.0855 118.877 75.8734 116.662 74.6457 112.705C73.4179 108.747 75.6393 104.547 79.6073 103.323Z" fill="#849CFF"/>
<path d="M141.804 109.254C145.772 108.029 149.984 110.245 151.212 114.202C152.44 118.159 150.218 122.359 146.25 123.583C142.282 124.808 138.07 122.593 136.842 118.636C135.615 114.679 137.836 110.478 141.804 109.254Z" fill="#849CFF"/>
<path d="M37.8842 60.1944C41.8522 58.97 46.0643 61.1853 47.292 65.1423C48.5198 69.0994 46.2984 73.2997 42.3304 74.5241C38.3624 75.7485 34.1504 73.5332 32.9226 69.5762C31.6948 65.6191 33.9162 61.4188 37.8842 60.1944Z" fill="#849CFF"/>
<path d="M50.1145 124.984C54.0825 123.76 58.2945 125.975 59.5223 129.932C60.7501 133.889 58.5287 138.09 54.5606 139.314C50.5926 140.539 46.3806 138.323 45.1528 134.366C43.925 130.409 46.1464 126.209 50.1145 124.984Z" fill="#849CFF"/>
<path d="M10.4105 76.5226C14.3785 75.2982 18.5905 77.5135 19.8183 81.4705C21.0461 85.4275 18.8247 89.6279 14.8567 90.8523C10.8886 92.0767 6.67662 89.8614 5.44884 85.9044C4.22106 81.9473 6.44247 77.747 10.4105 76.5226Z" fill="#849CFF"/>
<ellipse rx="15.0036" ry="15.038" transform="matrix(-0.29634 -0.955083 0.955545 -0.294845 36.3298 101.47)" fill="#849CFF"/>
<ellipse cx="1408.9" cy="163" rx="25.0693" ry="25" fill="#849CFF"/>
<ellipse cx="1299.59" cy="147" rx="15.0416" ry="15" fill="#849CFF"/>
<ellipse cx="1399.87" cy="93" rx="15.0416" ry="15" fill="#849CFF"/>
<ellipse cx="1426.45" cy="39.5" rx="7.52081" ry="7.5" fill="#849CFF"/>
<ellipse cx="1254.97" cy="139.5" rx="7.52081" ry="7.5" fill="#849CFF"/>
<ellipse cx="1321.15" cy="92.5" rx="7.52081" ry="7.5" fill="#849CFF"/>
<ellipse cx="1360.26" cy="162.5" rx="7.52081" ry="7.5" fill="#849CFF"/>
<ellipse cx="1367.28" cy="77.5" rx="7.52081" ry="7.5" fill="#849CFF"/>
<ellipse cx="1427.45" cy="116.5" rx="7.52081" ry="7.5" fill="#849CFF"/>
<ellipse cx="1384.33" cy="130.5" rx="7.52081" ry="7.5" fill="#849CFF"/>
<ellipse cx="1338.2" cy="147.5" rx="7.52081" ry="7.5" fill="#849CFF"/>
<rect y="258" width="1440" height="90" fill="#849CFF"/>
</svg>
