<svg width="32" height="30" viewBox="0 0 32 30" fill="none" xmlns="http://www.w3.org/2000/svg">
<path fill-rule="evenodd" clip-rule="evenodd" d="M9.79887 0.09C11.4029 0.0163636 11.9143 0 16.0001 0C20.086 0 20.5974 0.0177273 22.2 0.09C23.8026 0.162273 24.8966 0.417273 25.8538 0.786818C26.8561 1.16455 27.7654 1.755 28.5175 2.51864C29.2832 3.26727 29.874 4.17273 30.2514 5.17364C30.6233 6.12818 30.8777 7.21909 30.9515 8.81455C31.0253 10.4168 31.0417 10.9268 31.0417 15C31.0417 19.0745 31.024 19.5845 30.9515 21.1841C30.879 22.7795 30.6233 23.8705 30.2514 24.825C29.874 25.826 29.2823 26.733 28.5175 27.4827C27.7654 28.2464 26.8561 28.8355 25.8538 29.2118C24.8966 29.5827 23.8026 29.8364 22.2027 29.91C20.5974 29.9836 20.086 30 16.0001 30C11.9143 30 11.4029 29.9823 9.79887 29.91C8.19899 29.8377 7.10505 29.5827 6.14786 29.2118C5.14406 28.8354 4.23459 28.2453 3.48275 27.4827C2.71752 26.7336 2.12534 25.8271 1.7475 24.8264C1.37693 23.8718 1.12259 22.7809 1.04875 21.1855C0.974905 19.5832 0.958496 19.0732 0.958496 15C0.958496 10.9255 0.976273 10.4155 1.04875 8.81727C1.12122 7.21909 1.37693 6.12818 1.7475 5.17364C2.12589 4.17284 2.71853 3.26634 3.48412 2.51727C4.23489 1.75432 5.14345 1.16379 6.14649 0.786818C7.10368 0.417273 8.19762 0.163636 9.7975 0.09H9.79887ZM22.0783 2.79C20.4921 2.71773 20.0162 2.70273 16.0001 2.70273C11.984 2.70273 11.5081 2.71773 9.92194 2.79C8.4547 2.85682 7.65886 3.10091 7.1283 3.30682C6.42681 3.57955 5.92497 3.90273 5.39851 4.42773C4.89946 4.91189 4.5154 5.50129 4.27449 6.15273C4.06801 6.68182 3.82324 7.47545 3.75624 8.93864C3.68377 10.5205 3.66872 10.995 3.66872 15C3.66872 19.005 3.68377 19.4795 3.75624 21.0614C3.82324 22.5245 4.06801 23.3182 4.27449 23.8473C4.51516 24.4977 4.8994 25.0882 5.39851 25.5723C5.88395 26.07 6.47604 26.4532 7.1283 26.6932C7.65886 26.8991 8.4547 27.1432 9.92194 27.21C11.5081 27.2823 11.9826 27.2973 16.0001 27.2973C20.0176 27.2973 20.4921 27.2823 22.0783 27.21C23.5455 27.1432 24.3414 26.8991 24.8719 26.6932C25.5734 26.4205 26.0753 26.0973 26.6017 25.5723C27.1008 25.0882 27.4851 24.4977 27.7258 23.8473C27.9322 23.3182 28.177 22.5245 28.244 21.0614C28.3165 19.4795 28.3315 19.005 28.3315 15C28.3315 10.995 28.3165 10.5205 28.244 8.93864C28.177 7.47545 27.9322 6.68182 27.7258 6.15273C27.4523 5.45318 27.1282 4.95273 26.6017 4.42773C26.1162 3.9301 25.5252 3.54711 24.8719 3.30682C24.3414 3.10091 23.5455 2.85682 22.0783 2.79V2.79ZM14.0789 19.6241C15.1519 20.0695 16.3466 20.1296 17.4591 19.7942C18.5715 19.4587 19.5327 18.7485 20.1784 17.7849C20.8241 16.8212 21.1144 15.6639 20.9995 14.5106C20.8846 13.3573 20.3718 12.2795 19.5486 11.4614C19.0238 10.9384 18.3893 10.5379 17.6907 10.2888C16.9921 10.0397 16.2468 9.94822 15.5085 10.0208C14.7702 10.0935 14.0572 10.3284 13.4209 10.7088C12.7846 11.0892 12.2407 11.6056 11.8285 12.2207C11.4163 12.8359 11.146 13.5345 11.0371 14.2663C10.9281 14.9981 10.9833 15.7449 11.1985 16.453C11.4137 17.161 11.7837 17.8126 12.2817 18.361C12.7798 18.9093 13.3936 19.3407 14.0789 19.6241ZM10.5332 9.54818C11.2511 8.83224 12.1034 8.26432 13.0414 7.87686C13.9795 7.48939 14.9848 7.28996 16.0001 7.28996C17.0154 7.28996 18.0208 7.48939 18.9588 7.87686C19.8968 8.26432 20.7491 8.83224 21.4671 9.54818C22.185 10.2641 22.7545 11.1141 23.143 12.0495C23.5316 12.9849 23.7316 13.9875 23.7316 15C23.7316 16.0125 23.5316 17.0151 23.143 17.9505C22.7545 18.8859 22.185 19.7359 21.4671 20.4518C20.0171 21.8977 18.0506 22.71 16.0001 22.71C13.9496 22.71 11.9831 21.8977 10.5332 20.4518C9.08325 19.0059 8.26869 17.0448 8.26869 15C8.26869 12.9552 9.08325 10.9941 10.5332 9.54818V9.54818ZM25.4463 8.43818C25.6242 8.27082 25.7666 8.06957 25.8651 7.84633C25.9636 7.62309 26.0162 7.38241 26.0198 7.13854C26.0233 6.89467 25.9778 6.65256 25.8859 6.42656C25.7939 6.20055 25.6574 5.99524 25.4845 5.82278C25.3116 5.65032 25.1057 5.51421 24.879 5.42252C24.6524 5.33083 24.4096 5.28542 24.1651 5.28898C23.9205 5.29253 23.6792 5.34498 23.4553 5.44322C23.2315 5.54146 23.0297 5.68349 22.8618 5.86091C22.5354 6.20595 22.3568 6.66426 22.3637 7.13854C22.3706 7.61283 22.5626 8.06574 22.899 8.40115C23.2353 8.73655 23.6895 8.92804 24.1651 8.93495C24.6407 8.94187 25.1003 8.76367 25.4463 8.43818V8.43818Z" fill="white"/>
</svg>
