<svg width="26" height="25" viewBox="0 0 26 25" fill="none" xmlns="http://www.w3.org/2000/svg">
<path fill-rule="evenodd" clip-rule="evenodd" d="M9.53954 8.71125H14.1949V11.0238C14.8655 9.69375 16.5853 8.49875 19.1687 8.49875C24.1211 8.49875 25.2969 11.1463 25.2969 16.0038V25H20.283V17.11C20.283 14.3437 19.6124 12.7838 17.9052 12.7838C15.5374 12.7838 14.5534 14.465 14.5534 17.1088V25H9.53954V8.71125V8.71125ZM0.942015 24.7875H5.95588V8.49875H0.942015V24.7875V24.7875ZM6.67412 3.1875C6.67431 3.60659 6.59096 4.02154 6.42892 4.40823C6.26689 4.79492 6.0294 5.14564 5.73026 5.44C5.12408 6.04078 4.30358 6.37707 3.44895 6.375C2.59583 6.37443 1.77721 6.039 1.17015 5.44125C0.872086 5.14589 0.635399 4.79478 0.473649 4.40804C0.311899 4.0213 0.228265 3.60653 0.227539 3.1875C0.227539 2.34125 0.565975 1.53125 1.1714 0.93375C1.77793 0.335198 2.59689 -0.000374013 3.4502 3.12831e-07C4.30507 3.12831e-07 5.12483 0.33625 5.73026 0.93375C6.33443 1.53125 6.67412 2.34125 6.67412 3.1875Z" fill="white"/>
</svg>
