<svg width="147" height="55" viewBox="0 0 147 55" fill="none" xmlns="http://www.w3.org/2000/svg">
<g filter="url(#filter0_d_1939_2258)">
<path fill-rule="evenodd" clip-rule="evenodd" d="M81.0595 0H37.0404L29.4077 4.83338V8.23465L29.5122 8.23626V35.3072L29.2003 35.5092L14.8741 26.0665V4.65437H4V30.6114H4.03259L4.00005 30.6476L28.0255 46.4832L28.1421 46.3536L28.1526 46.3647L40.9091 40.0478L40.9091 28.1052L40.9091 28.1044L41.0041 8.41351L41.0136 8.41366L41.0136 6.44451L41.0136 5.90746H51.2604V33.5651L61.5071 27.2101V5.90746H72.3811V21.3027L83.778 17.7224V5.90746V4.29634V2.68521L81.0595 0Z" fill="#415DCC"/>
</g>
<path d="M69.3519 50L63.8079 26.9H66.6789L71.2659 47.36L75.8199 26.9H78.6909L73.2459 50H69.3519ZM81.6524 30.035V27.395H84.2924V30.035H81.6524ZM81.6524 50V32.84H84.2924V50H81.6524ZM87.2688 48.02H90.0738C91.0198 48.02 91.7018 47.767 92.1198 47.261C92.5598 46.733 92.7798 46.051 92.7798 45.215C92.7798 44.555 92.5818 43.994 92.1858 43.532C91.7898 43.07 91.1958 42.531 90.4038 41.915C89.7218 41.365 89.1718 40.892 88.7538 40.496C88.3578 40.078 88.0058 39.572 87.6978 38.978C87.4118 38.362 87.2688 37.658 87.2688 36.866C87.2688 35.7 87.6538 34.743 88.4238 33.995C89.2158 33.225 90.2718 32.84 91.5918 32.84H94.4628V34.82H92.0868C90.5248 34.82 89.7438 35.557 89.7438 37.031C89.7438 37.603 89.9198 38.098 90.2718 38.516C90.6238 38.934 91.1738 39.429 91.9218 40.001C92.6038 40.529 93.1648 41.013 93.6048 41.453C94.0448 41.871 94.4188 42.41 94.7268 43.07C95.0348 43.708 95.1888 44.467 95.1888 45.347C95.1888 46.909 94.7708 48.075 93.9348 48.845C93.1208 49.615 91.9658 50 90.4698 50H87.2688V48.02ZM100.165 50.231C99.3734 50.231 98.7794 49.956 98.3834 49.406C98.0094 48.856 97.8224 48.141 97.8224 47.261V32.84H100.462V46.403C100.462 47.019 100.506 47.459 100.594 47.723C100.682 47.987 100.891 48.119 101.221 48.119C101.375 48.119 102.618 47.789 104.95 47.129V32.84H107.59V50H105.709L105.214 48.878C104.862 49.01 104.598 49.098 104.422 49.142C103.388 49.516 102.552 49.791 101.914 49.967C101.276 50.143 100.693 50.231 100.165 50.231Z" fill="#849CFF"/>
<path d="M111.559 32.84H113.605L113.902 33.797L115.255 33.401C116.179 33.115 116.905 32.917 117.433 32.807C117.983 32.675 118.5 32.609 118.984 32.609C119.93 32.609 120.59 33.027 120.964 33.863C121.58 33.643 122.449 33.379 123.571 33.071C124.693 32.763 125.518 32.609 126.046 32.609C126.838 32.609 127.421 32.884 127.795 33.434C128.191 33.984 128.389 34.699 128.389 35.579V50H125.749V36.437C125.749 35.799 125.705 35.359 125.617 35.117C125.529 34.853 125.309 34.721 124.957 34.721C124.781 34.721 123.571 35.073 121.327 35.777V50H118.687V36.437C118.687 35.799 118.643 35.359 118.555 35.117C118.467 34.853 118.247 34.721 117.895 34.721C117.719 34.721 116.487 35.073 114.199 35.777V50H111.559V32.84ZM135.454 50C134.244 50 133.276 49.637 132.55 48.911C131.846 48.185 131.494 47.206 131.494 45.974V37.196C131.494 35.766 131.89 34.644 132.682 33.83C133.474 33.016 134.651 32.609 136.213 32.609C137.775 32.609 138.941 33.016 139.711 33.83C140.503 34.644 140.899 35.766 140.899 37.196V38.714C140.899 39.638 140.635 40.342 140.107 40.826C139.579 41.288 138.886 41.64 138.028 41.882L134.134 42.971V46.205C134.134 46.733 134.288 47.173 134.596 47.525C134.926 47.855 135.344 48.02 135.85 48.02H139.414V50H135.454ZM136.147 40.331C136.873 40.133 137.357 39.99 137.599 39.902C137.863 39.792 138.039 39.638 138.127 39.44C138.215 39.242 138.259 38.912 138.259 38.45V36.635C138.259 35.931 138.072 35.414 137.698 35.084C137.346 34.754 136.851 34.589 136.213 34.589C135.597 34.589 135.091 34.765 134.695 35.117C134.321 35.469 134.134 35.975 134.134 36.635V40.892L136.147 40.331ZM143.527 30.035V27.395H146.167V30.035H143.527ZM143.527 50V32.84H146.167V50H143.527Z" fill="#415DCC"/>
<defs>
<filter id="filter0_d_1939_2258" x="0" y="0" width="87.7778" height="54.4832" filterUnits="userSpaceOnUse" color-interpolation-filters="sRGB">
<feFlood flood-opacity="0" result="BackgroundImageFix"/>
<feColorMatrix in="SourceAlpha" type="matrix" values="0 0 0 0 0 0 0 0 0 0 0 0 0 0 0 0 0 0 127 0" result="hardAlpha"/>
<feOffset dy="4"/>
<feGaussianBlur stdDeviation="2"/>
<feComposite in2="hardAlpha" operator="out"/>
<feColorMatrix type="matrix" values="0 0 0 0 0 0 0 0 0 0 0 0 0 0 0 0 0 0 0.25 0"/>
<feBlend mode="normal" in2="BackgroundImageFix" result="effect1_dropShadow_1939_2258"/>
<feBlend mode="normal" in="SourceGraphic" in2="effect1_dropShadow_1939_2258" result="shape"/>
</filter>
</defs>
</svg>
