<svg width="30" height="30" viewBox="0 0 30 30" fill="none" xmlns="http://www.w3.org/2000/svg">
<path d="M6.16125 20.4731C3.89875 21.1519 2.5 22.0894 2.5 23.125C2.5 25.1963 8.09625 26.875 15 26.875C21.9037 26.875 27.5 25.1963 27.5 23.125C27.5 22.0894 26.1006 21.1519 23.8387 20.4731" stroke="#111111" stroke-width="2.5" stroke-linecap="round" stroke-linejoin="round"/>
<path d="M15 21.875C15 21.875 23.125 16.565 23.125 10.4262C23.125 6.04875 19.4875 2.5 15 2.5C10.5125 2.5 6.875 6.04875 6.875 10.4262C6.875 16.565 15 21.875 15 21.875Z" stroke="#111111" stroke-width="2.5" stroke-linejoin="round"/>
<path d="M15 13.75C15.8288 13.75 16.6237 13.4208 17.2097 12.8347C17.7958 12.2487 18.125 11.4538 18.125 10.625C18.125 9.7962 17.7958 9.00134 17.2097 8.41529C16.6237 7.82924 15.8288 7.5 15 7.5C14.1712 7.5 13.3763 7.82924 12.7903 8.41529C12.2042 9.00134 11.875 9.7962 11.875 10.625C11.875 11.4538 12.2042 12.2487 12.7903 12.8347C13.3763 13.4208 14.1712 13.75 15 13.75Z" stroke="#111111" stroke-width="2.5" stroke-linejoin="round"/>
</svg>
