<svg width="143" height="58" viewBox="0 0 143 58" fill="none" xmlns="http://www.w3.org/2000/svg">
<g filter="url(#filter0_d_2217_2331)">
<path fill-rule="evenodd" clip-rule="evenodd" d="M81.0595 0H37.0404L29.4077 4.47979V7.63224L29.5122 7.63373V32.7243L29.2003 32.9115L14.8741 24.1596V4.31387H4V28.372H4.03258L4.00005 28.4055L28.0255 43.0827L28.1421 42.9626L28.1526 42.9728L40.9091 37.1181L40.9091 26.0492L40.9091 26.0485L41.0041 7.79802L41.0136 7.79816L41.0136 5.97305L41.0136 5.4753H51.2604V31.1097L61.5071 25.2196V5.4753H72.3811V19.7443L83.778 16.4259V5.4753V3.98204V2.48877L81.0595 0Z" fill="#415DCC"/>
</g>
<path d="M65.3543 57L59.8103 33.9H62.6813L67.2683 54.36L71.8223 33.9H74.6933L69.2483 57H65.3543ZM77.6548 37.035V34.395H80.2948V37.035H77.6548ZM77.6548 57V39.84H80.2948V57H77.6548ZM83.2713 55.02H86.0763C87.0223 55.02 87.7043 54.767 88.1223 54.261C88.5623 53.733 88.7823 53.051 88.7823 52.215C88.7823 51.555 88.5843 50.994 88.1883 50.532C87.7923 50.07 87.1983 49.531 86.4062 48.915C85.7243 48.365 85.1743 47.892 84.7563 47.496C84.3603 47.078 84.0083 46.572 83.7003 45.978C83.4143 45.362 83.2713 44.658 83.2713 43.866C83.2713 42.7 83.6563 41.743 84.4263 40.995C85.2183 40.225 86.2743 39.84 87.5943 39.84H90.4653V41.82H88.0893C86.5273 41.82 85.7463 42.557 85.7463 44.031C85.7463 44.603 85.9223 45.098 86.2743 45.516C86.6263 45.934 87.1763 46.429 87.9243 47.001C88.6063 47.529 89.1673 48.013 89.6073 48.453C90.0473 48.871 90.4213 49.41 90.7293 50.07C91.0373 50.708 91.1913 51.467 91.1913 52.347C91.1913 53.909 90.7733 55.075 89.9373 55.845C89.1233 56.615 87.9683 57 86.4723 57H83.2713V55.02ZM96.1678 57.231C95.3758 57.231 94.7818 56.956 94.3858 56.406C94.0118 55.856 93.8248 55.141 93.8248 54.261V39.84H96.4648V53.403C96.4648 54.019 96.5088 54.459 96.5968 54.723C96.6848 54.987 96.8938 55.119 97.2238 55.119C97.3778 55.119 98.6208 54.789 100.953 54.129V39.84H103.593V57H101.712L101.217 55.878C100.865 56.01 100.601 56.098 100.425 56.142C99.3908 56.516 98.5548 56.791 97.9168 56.967C97.2788 57.143 96.6958 57.231 96.1678 57.231Z" fill="white"/>
<path d="M107.561 39.84H109.607L109.904 40.797L111.257 40.401C112.181 40.115 112.907 39.917 113.435 39.807C113.985 39.675 114.502 39.609 114.986 39.609C115.932 39.609 116.592 40.027 116.966 40.863C117.582 40.643 118.451 40.379 119.573 40.071C120.695 39.763 121.52 39.609 122.048 39.609C122.84 39.609 123.423 39.884 123.797 40.434C124.193 40.984 124.391 41.699 124.391 42.579V57H121.751V43.437C121.751 42.799 121.707 42.359 121.619 42.117C121.531 41.853 121.311 41.721 120.959 41.721C120.783 41.721 119.573 42.073 117.329 42.777V57H114.689V43.437C114.689 42.799 114.645 42.359 114.557 42.117C114.469 41.853 114.249 41.721 113.897 41.721C113.721 41.721 112.489 42.073 110.201 42.777V57H107.561V39.84ZM131.457 57C130.247 57 129.279 56.637 128.553 55.911C127.849 55.185 127.497 54.206 127.497 52.974V44.196C127.497 42.766 127.893 41.644 128.685 40.83C129.477 40.016 130.654 39.609 132.216 39.609C133.778 39.609 134.944 40.016 135.714 40.83C136.506 41.644 136.902 42.766 136.902 44.196V45.714C136.902 46.638 136.638 47.342 136.11 47.826C135.582 48.288 134.889 48.64 134.031 48.882L130.137 49.971V53.205C130.137 53.733 130.291 54.173 130.599 54.525C130.929 54.855 131.347 55.02 131.853 55.02H135.417V57H131.457ZM132.15 47.331C132.876 47.133 133.36 46.99 133.602 46.902C133.866 46.792 134.042 46.638 134.13 46.44C134.218 46.242 134.262 45.912 134.262 45.45V43.635C134.262 42.931 134.075 42.414 133.701 42.084C133.349 41.754 132.854 41.589 132.216 41.589C131.6 41.589 131.094 41.765 130.698 42.117C130.324 42.469 130.137 42.975 130.137 43.635V47.892L132.15 47.331ZM139.53 37.035V34.395H142.17V37.035H139.53ZM139.53 57V39.84H142.17V57H139.53Z" fill="#415DCC"/>
<defs>
<filter id="filter0_d_2217_2331" x="0" y="0" width="87.7783" height="51.0828" filterUnits="userSpaceOnUse" color-interpolation-filters="sRGB">
<feFlood flood-opacity="0" result="BackgroundImageFix"/>
<feColorMatrix in="SourceAlpha" type="matrix" values="0 0 0 0 0 0 0 0 0 0 0 0 0 0 0 0 0 0 127 0" result="hardAlpha"/>
<feOffset dy="4"/>
<feGaussianBlur stdDeviation="2"/>
<feComposite in2="hardAlpha" operator="out"/>
<feColorMatrix type="matrix" values="0 0 0 0 0 0 0 0 0 0 0 0 0 0 0 0 0 0 0.25 0"/>
<feBlend mode="normal" in2="BackgroundImageFix" result="effect1_dropShadow_2217_2331"/>
<feBlend mode="normal" in="SourceGraphic" in2="effect1_dropShadow_2217_2331" result="shape"/>
</filter>
</defs>
</svg>
